<svg width="28" height="28" viewBox="0 0 28 28" fill="none" xmlns="http://www.w3.org/2000/svg">
<g id="bell">
<path id="Vector" d="M18 12C18 10.4087 17.3679 8.88258 16.2426 7.75736C15.1174 6.63214 13.5913 6 12 6C10.4087 6 8.88258 6.63214 7.75736 7.75736C6.63215 8.88258 6 10.4087 6 12C6 17 3 16 3 21H21C21 16 18 17 18 12Z" stroke="#666666" stroke-width="2" stroke-linecap="square"/>
<path id="Vector_2" d="M14 24C14 25 13.3018 25.5547 12.9982 25.7295C12.6946 25.9044 12.3504 25.9965 12 25.9965C11.6496 25.9965 11.3054 25.9044 11.0018 25.7295C10.6981 25.5547 9.99997 25 9.99997 24" stroke="#666666" stroke-width="2" stroke-linecap="square"/>
<circle id="Ellipse 2" cx="24" cy="4" r="4" fill="#FFBF00"/>
</g>
</svg>
