<svg width="24" height="24" viewBox="0 0 24 24" fill="none" xmlns="http://www.w3.org/2000/svg">
<g id="bell">
<path id="Vector" d="M18 8C18 6.4087 17.3679 4.88258 16.2426 3.75736C15.1174 2.63214 13.5913 2 12 2C10.4087 2 8.88258 2.63214 7.75736 3.75736C6.63215 4.88258 6 6.4087 6 8C6 13 3 12 3 17H21C21 12 18 13 18 8Z" stroke="#666666" stroke-width="2" stroke-linecap="square"/>
<path id="Vector_2" d="M14 20C14 21 13.3018 21.5547 12.9982 21.7295C12.6946 21.9044 12.3504 21.9965 12 21.9965C11.6496 21.9965 11.3054 21.9044 11.0018 21.7295C10.6981 21.5547 9.99997 21 9.99997 20" stroke="#666666" stroke-width="2" stroke-linecap="square"/>
</g>
</svg>
